<svg width="259" height="91" viewBox="0 0 259 91" fill="none" xmlns="http://www.w3.org/2000/svg">
<path id="Line Flow" d="M2 68.2744C5.00817 67.9365 12.0858 63.1889 16.331 46.9009C21.6375 26.5409 35.0869 28.3308 39.5701 54.7317C44.0532 81.1325 49.9087 102.835 59.607 78.2239C69.3052 53.613 70.1889 56.743 78.546 50.4807C86.9837 44.1579 87.1774 22.8872 93.1825 8.20229C96.6592 -0.299696 104.987 -3.66344 113.405 22.2899C121.822 48.2433 129.873 39.5176 137.65 20.2763C145.427 1.03502 156.315 16.6965 159.974 23.4086C163.634 30.1207 168.01 32.2039 174.796 29.6732C183.251 26.5203 186.782 35.2666 189.984 49.1383C193.186 63.0099 199.957 60.5488 204.257 59.4301C208.557 58.3114 215.51 60.5488 219.445 67.7084C223.379 74.8679 233.169 98.5839 239.665 61.22C244.861 31.3289 253.387 17.8786 257 14.8899" stroke="#FAFBFC" stroke-width="3" stroke-linecap="round" stroke-linejoin="round"/>
</svg>
