<svg xmlns="http://www.w3.org/2000/svg" aria-hidden="true" style="position:absolute;width:0;height:0;overflow:hidden">
    <defs>
        <symbol id="icon-e-max" viewBox="0 0 29 32">
            <path fill="#fafbfc" style="fill: var(--color1, #fafbfc)" d="M18.393 31.882c3.028-0.36 5.894-1.536 8.274-3.397l-2.73-3.322c-1.747 1.365-3.85 2.229-6.073 2.493s-4.476-0.081-6.509-0.997c-2.032-0.916-3.763-2.366-4.996-4.188s-1.922-3.943-1.988-6.126c-0.066-2.183 0.494-4.34 1.616-6.229s2.762-3.437 4.736-4.467c1.974-1.031 4.203-1.505 6.438-1.368s4.386 0.878 6.212 2.141l2.525-3.473c-2.489-1.721-5.42-2.731-8.465-2.917s-6.082 0.46-8.772 1.864c-2.689 1.405-4.924 3.513-6.452 6.087s-2.291 5.514-2.201 8.488c0.090 2.974 1.028 5.864 2.709 8.347s4.039 4.459 6.808 5.707c2.769 1.248 5.84 1.719 8.869 1.358zM22.451 11.867l-13.816 4.133 13.816 4.133v-8.265z"></path>
        </symbol>
        <symbol id="icon-link" viewBox="0 0 31 32">
            <path d="M16.378 4.142c1.451-1.401 3.394-2.177 5.411-2.159s3.946 0.827 5.372 2.253 2.235 3.356 2.253 5.372c0.017 2.017-0.758 3.96-2.159 5.411l-0.016 0.016-3.846 3.846c-0.78 0.78-1.718 1.383-2.752 1.769s-2.138 0.544-3.238 0.465c-1.1-0.079-2.171-0.393-3.139-0.922s-1.811-1.26-2.472-2.143c-0.424-0.567-0.308-1.37 0.259-1.795s1.37-0.308 1.795 0.259c0.441 0.589 1.002 1.076 1.648 1.429s1.359 0.562 2.092 0.615c0.733 0.053 1.47-0.053 2.159-0.31s1.315-0.659 1.834-1.179l3.838-3.838c0.929-0.966 1.444-2.258 1.432-3.6-0.012-1.345-0.551-2.631-1.502-3.582s-2.237-1.49-3.582-1.502c-1.342-0.012-2.634 0.503-3.601 1.433l-2.198 2.185c-0.502 0.499-1.314 0.497-1.813-0.005s-0.497-1.314 0.005-1.813l2.218-2.205z"></path>
            <path d="M10.127 11.35c1.033-0.386 2.138-0.544 3.238-0.465s2.171 0.393 3.139 0.922c0.968 0.529 1.811 1.26 2.471 2.143 0.424 0.567 0.308 1.37-0.259 1.794s-1.37 0.308-1.795-0.259c-0.441-0.589-1.002-1.076-1.648-1.429s-1.359-0.562-2.092-0.615c-0.733-0.053-1.47 0.053-2.159 0.31s-1.315 0.659-1.835 1.179l-3.838 3.838c-0.93 0.966-1.444 2.259-1.432 3.6 0.012 1.345 0.551 2.631 1.502 3.582s2.237 1.49 3.582 1.502c1.341 0.012 2.633-0.503 3.6-1.432l2.184-2.184c0.501-0.501 1.313-0.501 1.813 0s0.501 1.312 0 1.813l-2.208 2.208c-1.451 1.401-3.394 2.177-5.411 2.159s-3.946-0.827-5.372-2.253-2.235-3.356-2.253-5.372c-0.018-2.017 0.758-3.96 2.159-5.411l0.016-0.016 3.846-3.846c-0 0 0-0 0 0 0.78-0.78 1.718-1.383 2.752-1.769z"></path>
        </symbol>
        <symbol id="icon-arrow-go" viewBox="0 0 39 32">
            <path fill="#fafbfc" style="fill: var(--color1, #fafbfc)" d="M3.016 25.524c-1.127 0.761-1.423 2.291-0.662 3.418s2.291 1.423 3.418 0.662l-2.756-4.080zM37.408 7.366c0.258-1.335-0.614-2.626-1.949-2.885l-21.749-4.213c-1.335-0.259-2.626 0.614-2.885 1.948s0.614 2.626 1.948 2.885l19.333 3.745-3.745 19.333c-0.258 1.335 0.614 2.626 1.949 2.885s2.626-0.614 2.885-1.949l4.213-21.749zM5.771 29.604l30.598-20.667-2.756-4.080-30.597 20.667 2.756 4.080z"></path>
        </symbol>
        <symbol id="icon-footer-arrow" viewBox="0 0 96 32">
            <path d="M2.783 13.913c-1.153 0-2.087 0.934-2.087 2.087s0.934 2.087 2.087 2.087v-4.174zM94.693 17.476c0.815-0.815 0.815-2.136 0-2.951l-13.281-13.281c-0.815-0.815-2.136-0.815-2.951 0s-0.815 2.136 0 2.951l11.806 11.806-11.806 11.806c-0.815 0.815-0.815 2.136 0 2.951s2.136 0.815 2.951 0l13.281-13.281zM2.783 18.087h90.435v-4.174h-90.435v4.174z"></path>
        </symbol>
    </defs>
</svg>