<svg xmlns="http://www.w3.org/2000/svg" aria-hidden="true" style="position:absolute;width:0;height:0;overflow:hidden">
    <defs>
        <symbol id="icon-e-max" viewBox="0 0 29 32">
            <path fill="#fafbfc" style="fill: var(--color1, #fafbfc)"
                  d="M18.393 31.882c3.028-0.36 5.894-1.536 8.274-3.397l-2.73-3.322c-1.747 1.365-3.85 2.229-6.073 2.493s-4.476-0.081-6.509-0.997c-2.032-0.916-3.763-2.366-4.996-4.188s-1.922-3.943-1.988-6.126c-0.066-2.183 0.494-4.34 1.616-6.229s2.762-3.437 4.736-4.467c1.974-1.031 4.203-1.505 6.438-1.368s4.386 0.878 6.212 2.141l2.525-3.473c-2.489-1.721-5.42-2.731-8.465-2.917s-6.082 0.46-8.772 1.864c-2.689 1.405-4.924 3.513-6.452 6.087s-2.291 5.514-2.201 8.488c0.090 2.974 1.028 5.864 2.709 8.347s4.039 4.459 6.808 5.707c2.769 1.248 5.84 1.719 8.869 1.358zM22.451 11.867l-13.816 4.133 13.816 4.133v-8.265z"></path>
        </symbol>
        <symbol id="icon-footer-arrow" viewBox="0 0 96 32">
            <path d="M2.783 13.913c-1.153 0-2.087 0.934-2.087 2.087s0.934 2.087 2.087 2.087v-4.174zM94.693 17.476c0.815-0.815 0.815-2.136 0-2.951l-13.281-13.281c-0.815-0.815-2.136-0.815-2.951 0s-0.815 2.136 0 2.951l11.806 11.806-11.806 11.806c-0.815 0.815-0.815 2.136 0 2.951s2.136 0.815 2.951 0l13.281-13.281zM2.783 18.087h90.435v-4.174h-90.435v4.174z"></path>
        </symbol>
    </defs>
</svg>
