<svg xmlns="http://www.w3.org/2000/svg" aria-hidden="true" style="position:absolute;width:0;height:0;overflow:hidden">
    <defs>
        <symbol id="icon-e-max" viewBox="0 0 29 32">
            <path d="M18.393 31.882c3.028-0.36 5.894-1.536 8.274-3.397l-2.73-3.322c-1.747 1.365-3.85 2.229-6.073 2.493s-4.476-0.081-6.509-0.997c-2.032-0.916-3.763-2.366-4.996-4.188s-1.922-3.943-1.988-6.126c-0.066-2.183 0.494-4.34 1.616-6.229s2.762-3.437 4.736-4.467c1.974-1.031 4.203-1.505 6.438-1.368s4.386 0.878 6.212 2.141l2.525-3.473c-2.489-1.721-5.42-2.731-8.465-2.917s-6.082 0.46-8.772 1.864c-2.689 1.405-4.924 3.513-6.452 6.087s-2.291 5.514-2.201 8.488c0.090 2.974 1.028 5.864 2.709 8.347s4.039 4.459 6.808 5.707c2.769 1.248 5.84 1.719 8.869 1.358zM22.451 11.867l-13.816 4.133 13.816 4.133v-8.265z"></path>
        </symbol>
<symbol id="icon-link" viewBox="0 0 31 32">
            <path
                d="M16.378 4.142c1.451-1.401 3.394-2.177 5.411-2.159s3.946 0.827 5.372 2.253 2.235 3.356 2.253 5.372c0.017 2.017-0.758 3.96-2.159 5.411l-0.016 0.016-3.846 3.846c-0.78 0.78-1.718 1.383-2.752 1.769s-2.138 0.544-3.238 0.465c-1.1-0.079-2.171-0.393-3.139-0.922s-1.811-1.26-2.472-2.143c-0.424-0.567-0.308-1.37 0.259-1.795s1.37-0.308 1.795 0.259c0.441 0.589 1.002 1.076 1.648 1.429s1.359 0.562 2.092 0.615c0.733 0.053 1.47-0.053 2.159-0.31s1.315-0.659 1.834-1.179l3.838-3.838c0.929-0.966 1.444-2.258 1.432-3.6-0.012-1.345-0.551-2.631-1.502-3.582s-2.237-1.49-3.582-1.502c-1.342-0.012-2.634 0.503-3.601 1.433l-2.198 2.185c-0.502 0.499-1.314 0.497-1.813-0.005s-0.497-1.314 0.005-1.813l2.218-2.205z"></path>
            <path
                d="M10.127 11.35c1.033-0.386 2.138-0.544 3.238-0.465s2.171 0.393 3.139 0.922c0.968 0.529 1.811 1.26 2.471 2.143 0.424 0.567 0.308 1.37-0.259 1.794s-1.37 0.308-1.795-0.259c-0.441-0.589-1.002-1.076-1.648-1.429s-1.359-0.562-2.092-0.615c-0.733-0.053-1.47 0.053-2.159 0.31s-1.315 0.659-1.835 1.179l-3.838 3.838c-0.93 0.966-1.444 2.259-1.432 3.6 0.012 1.345 0.551 2.631 1.502 3.582s2.237 1.49 3.582 1.502c1.341 0.012 2.633-0.503 3.6-1.432l2.184-2.184c0.501-0.501 1.313-0.501 1.813 0s0.501 1.312 0 1.813l-2.208 2.208c-1.451 1.401-3.394 2.177-5.411 2.159s-3.946-0.827-5.372-2.253-2.235-3.356-2.253-5.372c-0.018-2.017 0.758-3.96 2.159-5.411l0.016-0.016 3.846-3.846c-0 0 0-0 0 0 0.78-0.78 1.718-1.383 2.752-1.769z"></path>
        </symbol>
        <symbol id="icon-arrow-go" viewBox="0 0 39 32">
            <path fill="#fafbfc" style="fill: var(--color1, #fafbfc)" d="M3.016 25.524c-1.127 0.761-1.423 2.291-0.662 3.418s2.291 1.423 3.418 0.662l-2.756-4.080zM37.408 7.366c0.258-1.335-0.614-2.626-1.949-2.885l-21.749-4.213c-1.335-0.259-2.626 0.614-2.885 1.948s0.614 2.626 1.948 2.885l19.333 3.745-3.745 19.333c-0.258 1.335 0.614 2.626 1.949 2.885s2.626-0.614 2.885-1.949l4.213-21.749zM5.771 29.604l30.598-20.667-2.756-4.080-30.597 20.667 2.756 4.080z"></path>
        </symbol>
        <symbol id="icon-footer-arrow" viewBox="0 0 96 32">
            <path
                d="M2.783 13.913c-1.153 0-2.087 0.934-2.087 2.087s0.934 2.087 2.087 2.087v-4.174zM94.693 17.476c0.815-0.815 0.815-2.136 0-2.951l-13.281-13.281c-0.815-0.815-2.136-0.815-2.951 0s-0.815 2.136 0 2.951l11.806 11.806-11.806 11.806c-0.815 0.815-0.815 2.136 0 2.951s2.136 0.815 2.951 0l13.281-13.281zM2.783 18.087h90.435v-4.174h-90.435v4.174z"></path>
        </symbol>
        <symbol id="background-start" viewBox="0 0 33 32">
            <path fill="#fafbfc" style="fill: var(--color1, #fafbfc)" opacity="0.5"
                d="M0.358 14.357l0.358 0.618h-0.717l0.358-0.618z"></path>
            <path fill="#fafbfc" style="fill: var(--color1, #fafbfc)" opacity="0.5"
                d="M4.082 13.739l0.358 0.618h-0.717l0.358-0.618z"></path>
            <path fill="#fafbfc" style="fill: var(--color1, #fafbfc)" opacity="0.5"
                d="M2.841 6.318l0.358 0.618h-0.717l0.358-0.618z"></path>
            <path fill="#fafbfc" style="fill: var(--color1, #fafbfc)" opacity="0.5"
                d="M6.667 5.905l0.269 0.464h-0.537l0.269-0.464z"></path>
            <path fill="#fafbfc" style="fill: var(--color1, #fafbfc)" opacity="0.5"
                d="M4.392 4.256l0.269 0.464h-0.537l0.269-0.464z"></path>
            <path fill="#fafbfc" style="fill: var(--color1, #fafbfc)" opacity="0.5"
                d="M5.012 7.967l0.269 0.464h-0.537l0.269-0.464z"></path>
            <path fill="#fafbfc" style="fill: var(--color1, #fafbfc)" opacity="0.5"
                d="M3.564 9.822l0.448 0.773h-0.896l0.448-0.773z"></path>
            <path fill="#fafbfc" style="fill: var(--color1, #fafbfc)" opacity="0.5"
                d="M1.91 12.089l0.448 0.773h-0.896l0.448-0.773z"></path>
            <path fill="#fafbfc" style="fill: var(--color1, #fafbfc)" opacity="0.5"
                d="M1.289 8.379l0.448 0.773h-0.896l0.448-0.773z"></path>
            <path fill="#fafbfc" style="fill: var(--color1, #fafbfc)" opacity="0.5"
                d="M24.358 5.719c0 0.338-0.281 0.613-0.628 0.613s-0.628-0.274-0.628-0.613 0.281-0.613 0.628-0.613c0.347 0 0.628 0.274 0.628 0.613z"></path>
            <path fill="#fafbfc" style="fill: var(--color1, #fafbfc)" opacity="0.5"
                d="M27.29 3.064c0 0.338-0.281 0.613-0.628 0.613s-0.628-0.274-0.628-0.613 0.281-0.613 0.628-0.613c0.347 0 0.628 0.274 0.628 0.613z"></path>
            <path fill="#fafbfc" style="fill: var(--color1, #fafbfc)" opacity="0.5"
                d="M30.223 8.579c0 0.338-0.281 0.613-0.628 0.613s-0.628-0.274-0.628-0.613 0.281-0.613 0.628-0.613c0.347 0 0.628 0.274 0.628 0.613z"></path>
            <path fill="#fafbfc" style="fill: var(--color1, #fafbfc)" opacity="0.5"
                d="M27.081 8.477c0 0.282-0.234 0.511-0.523 0.511s-0.524-0.229-0.524-0.511 0.234-0.511 0.524-0.511c0.289 0 0.523 0.229 0.523 0.511z"></path>
            <path fill="#fafbfc" style="fill: var(--color1, #fafbfc)" opacity="0.5"
                d="M29.804 13.992c0 0.282-0.234 0.511-0.524 0.511s-0.523-0.229-0.523-0.511 0.234-0.511 0.523-0.511c0.289 0 0.524 0.229 0.524 0.511z"></path>
            <path fill="#fafbfc" style="fill: var(--color1, #fafbfc)" opacity="0.5"
                d="M32.946 11.336c0 0.282-0.234 0.511-0.524 0.511s-0.524-0.229-0.524-0.511c0-0.282 0.234-0.511 0.524-0.511s0.524 0.229 0.524 0.511z"></path>
            <path fill="#fafbfc" style="fill: var(--color1, #fafbfc)" opacity="0.5"
                d="M24.148 2.86c0 0.226-0.188 0.409-0.419 0.409s-0.419-0.183-0.419-0.409 0.188-0.409 0.419-0.409c0.231 0 0.419 0.183 0.419 0.409z"></path>
            <path fill="#fafbfc" style="fill: var(--color1, #fafbfc)" opacity="0.5"
                d="M21.216 3.064c0 0.226-0.188 0.409-0.419 0.409s-0.419-0.183-0.419-0.409 0.188-0.409 0.419-0.409c0.231 0 0.419 0.183 0.419 0.409z"></path>
            <path fill="#fafbfc" style="fill: var(--color1, #fafbfc)" opacity="0.5"
                d="M18.493 3.064c0 0.226-0.188 0.409-0.419 0.409s-0.419-0.183-0.419-0.409 0.188-0.409 0.419-0.409c0.231 0 0.419 0.183 0.419 0.409z"></path>
            <path fill="#fafbfc" style="fill: var(--color1, #fafbfc)" opacity="0.5"
                d="M18.493 0.306c0 0.169-0.141 0.306-0.314 0.306s-0.314-0.137-0.314-0.306c0-0.169 0.141-0.306 0.314-0.306s0.314 0.137 0.314 0.306z"></path>
            <path fill="#fafbfc" style="fill: var(--color1, #fafbfc)" opacity="0.5"
                d="M21.425 0.306c0 0.169-0.141 0.306-0.314 0.306s-0.314-0.137-0.314-0.306 0.141-0.306 0.314-0.306c0.173 0 0.314 0.137 0.314 0.306z"></path>
            <path fill="#fafbfc" style="fill: var(--color1, #fafbfc)" opacity="0.5"
                d="M24.148 0.306c0 0.169-0.141 0.306-0.314 0.306s-0.314-0.137-0.314-0.306 0.141-0.306 0.314-0.306c0.173 0 0.314 0.137 0.314 0.306z"></path>
            <path fill="#fafbfc" style="fill: var(--color1, #fafbfc)" opacity="0.5"
                d="M32.527 14.094c0 0.113-0.094 0.204-0.209 0.204s-0.209-0.091-0.209-0.204c0-0.113 0.094-0.204 0.209-0.204s0.209 0.091 0.209 0.204z"></path>
            <path fill="#fafbfc" style="fill: var(--color1, #fafbfc)" opacity="0.5"
                d="M32.527 8.579c0 0.113-0.094 0.204-0.209 0.204s-0.209-0.091-0.209-0.204c0-0.113 0.094-0.204 0.209-0.204s0.209 0.091 0.209 0.204z"></path>
            <path fill="#fafbfc" style="fill: var(--color1, #fafbfc)" opacity="0.5"
                d="M27.081 5.719c0 0.226-0.188 0.409-0.419 0.409s-0.419-0.183-0.419-0.409c0-0.226 0.188-0.409 0.419-0.409s0.419 0.183 0.419 0.409z"></path>
            <path fill="#fafbfc" style="fill: var(--color1, #fafbfc)" opacity="0.5"
                d="M29.804 5.719c0 0.226-0.187 0.409-0.419 0.409s-0.419-0.183-0.419-0.409c0-0.226 0.188-0.409 0.419-0.409s0.419 0.183 0.419 0.409z"></path>
            <path fill="#fafbfc" style="fill: var(--color1, #fafbfc)" opacity="0.5"
                d="M29.804 11.234c0 0.226-0.187 0.409-0.419 0.409s-0.419-0.183-0.419-0.409c0-0.226 0.188-0.409 0.419-0.409s0.419 0.183 0.419 0.409z"></path>
            <path fill="#fafbfc" style="fill: var(--color1, #fafbfc)" opacity="0.5"
                d="M1.567 20.766c0 0.338-0.28 0.613-0.626 0.613s-0.626-0.274-0.626-0.613c0-0.338 0.28-0.613 0.626-0.613s0.626 0.274 0.626 0.613z"></path>
            <path fill="#fafbfc" style="fill: var(--color1, #fafbfc)" opacity="0.5"
                d="M4.487 23.421c0 0.338-0.28 0.613-0.626 0.613s-0.626-0.274-0.626-0.613c0-0.338 0.28-0.613 0.626-0.613s0.626 0.274 0.626 0.613z"></path>
            <path fill="#fafbfc" style="fill: var(--color1, #fafbfc)" opacity="0.5"
                d="M7.199 26.077c0 0.338-0.28 0.613-0.626 0.613s-0.626-0.274-0.626-0.613c0-0.338 0.28-0.613 0.626-0.613s0.626 0.274 0.626 0.613z"></path>
            <path fill="#fafbfc" style="fill: var(--color1, #fafbfc)" opacity="0.5"
                d="M6.782 23.319c0 0.169-0.14 0.306-0.313 0.306s-0.313-0.137-0.313-0.306c0-0.169 0.14-0.306 0.313-0.306s0.313 0.137 0.313 0.306z"></path>
            <path fill="#fafbfc" style="fill: var(--color1, #fafbfc)" opacity="0.5"
                d="M9.702 31.694c0 0.169-0.14 0.306-0.313 0.306s-0.313-0.137-0.313-0.306c0-0.169 0.14-0.306 0.313-0.306s0.313 0.137 0.313 0.306z"></path>
            <path fill="#fafbfc" style="fill: var(--color1, #fafbfc)" opacity="0.5"
                d="M12.413 31.694c0 0.169-0.14 0.306-0.313 0.306s-0.313-0.137-0.313-0.306c0-0.169 0.14-0.306 0.313-0.306s0.313 0.137 0.313 0.306z"></path>
            <path fill="#fafbfc" style="fill: var(--color1, #fafbfc)" opacity="0.5"
                d="M15.334 31.694c0 0.169-0.14 0.306-0.313 0.306s-0.313-0.137-0.313-0.306c0-0.169 0.14-0.306 0.313-0.306s0.313 0.137 0.313 0.306z"></path>
            <path fill="#fafbfc" style="fill: var(--color1, #fafbfc)" opacity="0.5"
                d="M18.045 31.694c0 0.169-0.14 0.306-0.313 0.306s-0.313-0.137-0.313-0.306c0-0.169 0.14-0.306 0.313-0.306s0.313 0.137 0.313 0.306z"></path>
            <path fill="#fafbfc" style="fill: var(--color1, #fafbfc)" opacity="0.5"
                d="M20.757 31.796c0 0.113-0.093 0.204-0.209 0.204s-0.209-0.091-0.209-0.204 0.093-0.204 0.209-0.204c0.115 0 0.209 0.091 0.209 0.204z"></path>
            <path fill="#fafbfc" style="fill: var(--color1, #fafbfc)" opacity="0.5"
                d="M9.493 26.076c0 0.113-0.093 0.204-0.209 0.204s-0.209-0.091-0.209-0.204c0-0.113 0.093-0.204 0.209-0.204s0.209 0.091 0.209 0.204z"></path>
            <path fill="#fafbfc" style="fill: var(--color1, #fafbfc)" opacity="0.5"
                d="M4.070 26.179c0 0.169-0.14 0.306-0.313 0.306s-0.313-0.137-0.313-0.306c0-0.169 0.14-0.306 0.313-0.306s0.313 0.137 0.313 0.306z"></path>
            <path fill="#fafbfc" style="fill: var(--color1, #fafbfc)" opacity="0.5"
                d="M4.070 20.664c0 0.169-0.14 0.306-0.313 0.306s-0.313-0.137-0.313-0.306c0-0.169 0.14-0.306 0.313-0.306s0.313 0.137 0.313 0.306z"></path>
            <path fill="#fafbfc" style="fill: var(--color1, #fafbfc)" opacity="0.5"
                d="M1.358 17.906c0 0.226-0.187 0.408-0.417 0.408s-0.417-0.183-0.417-0.408c0-0.226 0.187-0.409 0.417-0.409s0.417 0.183 0.417 0.409z"></path>
            <path fill="#fafbfc" style="fill: var(--color1, #fafbfc)" opacity="0.5"
                d="M1.358 23.421c0 0.226-0.187 0.409-0.417 0.409s-0.417-0.183-0.417-0.409c0-0.226 0.187-0.408 0.417-0.408s0.417 0.183 0.417 0.408z"></path>
            <path fill="#fafbfc" style="fill: var(--color1, #fafbfc)" opacity="0.5"
                d="M18.045 28.936c0 0.226-0.187 0.409-0.417 0.409s-0.417-0.183-0.417-0.409c0-0.226 0.187-0.408 0.417-0.408s0.417 0.183 0.417 0.408z"></path>
            <path fill="#fafbfc" style="fill: var(--color1, #fafbfc)" opacity="0.5"
                d="M20.966 28.936c0 0.226-0.187 0.409-0.417 0.409s-0.417-0.183-0.417-0.409c0-0.226 0.187-0.408 0.417-0.408s0.417 0.183 0.417 0.408z"></path>
            <path fill="#fafbfc" style="fill: var(--color1, #fafbfc)" opacity="0.5"
                d="M7.199 28.936c0 0.338-0.28 0.613-0.626 0.613s-0.626-0.274-0.626-0.613c0-0.338 0.28-0.613 0.626-0.613s0.626 0.274 0.626 0.613z"></path>
            <path fill="#fafbfc" style="fill: var(--color1, #fafbfc)" opacity="0.5"
                d="M9.91 28.936c0 0.338-0.28 0.613-0.626 0.613s-0.626-0.274-0.626-0.613c0-0.338 0.28-0.613 0.626-0.613s0.626 0.274 0.626 0.613z"></path>
            <path fill="#fafbfc" style="fill: var(--color1, #fafbfc)" opacity="0.5"
                d="M12.831 28.936c0 0.338-0.28 0.613-0.626 0.613s-0.626-0.274-0.626-0.613c0-0.338 0.28-0.613 0.626-0.613s0.626 0.274 0.626 0.613z"></path>
            <path fill="#fafbfc" style="fill: var(--color1, #fafbfc)" opacity="0.5"
                d="M15.542 28.936c0 0.338-0.28 0.613-0.626 0.613s-0.626-0.274-0.626-0.613c0-0.338 0.28-0.613 0.626-0.613s0.626 0.274 0.626 0.613z"></path>
        </symbol>
        <symbol id="icon-e-min" viewBox="0 0 15 15" >
        <path  d="M10.3458 14.9449C12.0492 14.7761 13.6609 14.2247 15 13.3526L13.4644 11.7954C12.4816 12.4354 11.2987 12.8401 10.0486 12.964C8.79842 13.0878 7.53052 12.926 6.38729 12.4966C5.24407 12.0672 4.27079 11.3873 3.57678 10.5333C2.88277 9.67918 2.49551 8.68478 2.45851 7.66173C2.4215 6.63868 2.73621 5.62751 3.3673 4.74179C3.99838 3.85606 4.92083 3.13087 6.03105 2.64766C7.14127 2.16445 8.39528 1.94237 9.65223 2.00635C10.9092 2.07033 12.1193 2.41784 13.1466 3.00985L14.567 1.38199C13.1672 0.575346 11.5184 0.101846 9.80573 0.0146707C8.09308 -0.0725047 6.38444 0.230098 4.87172 0.88849C3.359 1.54688 2.10212 2.53499 1.24225 3.74182C0.382374 4.94866 -0.0464346 6.32642 0.00398562 7.72037C0.0544059 9.11431 0.582058 10.4692 1.52768 11.6329C2.4733 12.7966 3.79943 13.723 5.35712 14.3081C6.91482 14.8931 8.64238 15.1136 10.3458 14.9449ZM12.6288 5.56281L4.85719 7.49998L12.6288 9.43714V5.56281Z" fill="#FFEE02"/>
        </symbol>
        <symbol id="icon-chevron-down" viewBox="0 0 25 25" >
        <path  d="M8.29289 19.6862C7.90237 19.2678 7.90237 18.5894 8.29289 18.171L13.5858 12.5L8.29289 6.82904C7.90237 6.41062 7.90237 5.73223 8.29289 5.31382C8.68342 4.8954 9.31658 4.8954 9.70711 5.31382L15.7071 11.7424C16.0976 12.1608 16.0976 12.8392 15.7071 13.2576L9.70711 19.6862C9.31658 20.1046 8.68342 20.1046 8.29289 19.6862Z" fill="#FAFBFC"/>‚
        </symbol>
    </defs>
</svg>